<?xml version="1.0" encoding="utf-8"?>
<!-- Generator: Adobe Illustrator 24.1.0, SVG Export Plug-In . SVG Version: 6.00 Build 0)  -->
<svg version="1.1" id="Layer_1" xmlns="http://www.w3.org/2000/svg" xmlns:xlink="http://www.w3.org/1999/xlink" x="0px" y="0px"
	 viewBox="0 0 500 500" style="enable-background:new 0 0 500 500;" xml:space="preserve">
<style type="text/css">
	.st0{fill:#F4F4F4;stroke:#C12027;stroke-width:8;stroke-miterlimit:10;}
	.st1{fill:#C12027;}
	.st2{fill:none;stroke:#C12027;stroke-width:5;stroke-miterlimit:10;}
	.st3{fill:none;stroke:#FFF200;stroke-width:5;stroke-linecap:round;stroke-miterlimit:10;}
</style>
<image style="display:none;overflow:visible;enable-background:new    ;" width="400" height="400" xlink:href="5139BC5CE696BD9F.png"  transform="matrix(1 0 0 1 50 50)">
</image>
<g id="Layer_2_1_">
	<g>
		<circle class="st0" cx="250" cy="244.8" r="144"/>
		<polygon class="st1" points="250,203.8 211,231.9 225.9,277.4 274.1,277.4 289,231.9 		"/>
		<polygon class="st1" points="285.7,143.2 271.9,101.2 227.9,101.5 214.4,143.7 250.1,169.5 		"/>
		<polygon class="st1" points="393.7,218.8 379.9,176.8 335.9,177.1 322.4,219.3 358.1,245.1 		"/>
		<polygon class="st1" points="219.7,349.8 205.9,307.8 161.9,308.1 148.4,350.3 184.1,376.1 		"/>
		<polygon class="st1" points="177.7,218.8 163.9,176.8 119.9,177.1 106.4,219.3 142.1,245.1 		"/>
		<polygon class="st1" points="348.7,350.8 334.9,308.8 290.9,309.1 277.4,351.3 313.1,377.1 		"/>
		<line class="st2" x1="115" y1="295.8" x2="250" y2="240.8"/>
		<line class="st2" x1="250.3" y1="240" x2="384.7" y2="296.5"/>
		<line class="st2" x1="165.6" y1="129.6" x2="257.4" y2="242.9"/>
		<line class="st2" x1="334.7" y1="129.1" x2="244.3" y2="243.4"/>
		<line class="st2" x1="163.5" y1="310.3" x2="145.3" y2="283.4"/>
		<path class="st2" d="M334.5,309.3"/>
		<line class="st2" x1="332.5" y1="312.3" x2="354.9" y2="284"/>
		<line class="st2" x1="283.5" y1="142.3" x2="315" y2="154"/>
		<line class="st2" x1="218.5" y1="142.3" x2="185.4" y2="154"/>
		<line class="st2" x1="270.5" y1="272.3" x2="294.5" y2="315.3"/>
		<line class="st2" x1="229.5" y1="273.3" x2="202.4" y2="312.3"/>
		<g>
			<path d="M263.5,219.8c0-0.9,0-1.7,0-2.5c0.1-7.9-6.5-14.3-14-14c-7.2,0.3-13.1,6.5-13,14c0.1,0.7,0.1,1.6,0.2,2.5H263.5z"/>
			<path d="M263.7,240.8h-27.6c-2.4,37.4-12.2,104-36.9,124.1c7.7,4.2,27.7,10.8,50.3,10.8c8.7,0,27.9,0.9,47.8-9.9
				C271.3,349,265.1,282.6,263.7,240.8z"/>
		</g>
		<g>
			<path class="st3" d="M206.5,243.8c9.1-5.2,24.1-12,43-12c9.7,0,25.3,1.8,43,12"/>
			<path class="st3" d="M292.5,216.8c-9.1,5.2-24,12-43,12c-9.7,0-25.3-1.8-43-12"/>
		</g>
		<g>
			<g>
				<g>
					<path class="st1" d="M89.1,291.4l9.1,25.5l-7.4,2.6L85,303.2l-9,3.2l5,14l-7.4,2.6l-5-14l-15.1,5.4l-3.3-9.1L89.1,291.4z"/>
					<path class="st1" d="M82.2,331.4c11.2-7.5,22.1-5.1,28.5,4.5c6.4,9.7,4.3,20.6-6.9,28c-11.2,7.5-22.4,5.3-28.8-4.4
						S70.9,338.9,82.2,331.4z M98.2,355.7c6.9-4.6,8.9-10.4,5.7-15.2c-3.2-4.9-9.3-5.3-16.3-0.7c-6.9,4.6-9.2,10.5-6,15.4
						C84.9,360.1,91.3,360.2,98.2,355.7z"/>
					<path class="st1" d="M109.8,370.9c8.9-10.1,20-10.7,28.7-3c8.7,7.7,9.5,18.8,0.6,28.8c-8.9,10.1-20.2,11-28.9,3.3
						C101.5,392.3,100.9,381,109.8,370.9z M131.6,390.1c5.5-6.2,5.9-12.3,1.6-16.2c-4.4-3.9-10.4-2.7-15.9,3.5
						c-5.5,6.2-6.2,12.6-1.8,16.5C119.9,397.8,126.2,396.3,131.6,390.1z"/>
					<path class="st1" d="M161.7,395.1l-10.4-5.6l3.7-6.9l29.4,15.7l-3.7,6.9l-10.4-5.6l-15.8,29.5l-8.6-4.6L161.7,395.1z"/>
					<path class="st1" d="M188.9,399.9l14.1,4c8.6,2.4,14.6,6.6,12.5,14.2c-1,3.6-4.2,6.8-7.9,7l-0.1,0.2c3.9,2.2,6.3,6.2,4.8,11.5
						c-2.3,8.1-10.4,9.7-19.4,7.1l-15.3-4.3L188.9,399.9z M194.2,436.8c5.1,1.4,8.2,0.4,9.2-3.2c1-3.5-1.2-5.6-6.3-7.1l-5.2-1.5
						l-2.9,10.3L194.2,436.8z M198.1,419.7c4.5,1.3,7.1,0,7.9-2.9c0.9-3.1-0.9-4.9-5.3-6.1l-4.4-1.3l-2.5,9L198.1,419.7z"/>
					<path class="st1" d="M233.6,409.7l11.6,0.7l10.9,42.1l-10.3-0.6l-4.3-21.2c-0.9-4.2-1.8-9.1-2.7-13.5l-0.3,0
						c-1.3,4.3-2.8,9-4.2,13.1l-6.9,20.5l-9.9-0.6L233.6,409.7z M227.5,433.6l20.6,1.3l-0.4,7.2l-20.6-1.3L227.5,433.6z"/>
					<path class="st1" d="M261.4,410.5l9.6-1.3l4.4,33.2l16.8-2.2l1,7.8l-26.4,3.5L261.4,410.5z"/>
					<path class="st1" d="M293.3,405.4l9.2-3.1l10.6,31.8l16.1-5.4l2.5,7.4l-25.3,8.5L293.3,405.4z"/>
					<path class="st1" d="M344.6,407.4c-7.7-11.3-4.4-23.2,4.5-29.3c4.6-3.1,9.7-3.6,13.7-2.9l-0.9,7.8c-2.9-0.4-5.5-0.2-8.1,1.6
						c-4.9,3.3-5.9,10.1-1.2,16.9c4.8,7,11,8.8,16.1,5.2c2.9-2,4.3-4.9,4.8-7.9l7.5,2c-0.7,5.3-3.5,9.7-8,12.8
						C364,419.8,352.4,418.9,344.6,407.4z"/>
					<path class="st1" d="M363.9,367.7l6.7-7l24.2,23.1l11.7-12.2l5.7,5.4l-18.4,19.3L363.9,367.7z"/>
					<path class="st1" d="M404.8,355.7l-19.1-11.2l4.9-8.4l19.9,11.7c7,4.1,10.7,3.2,13.2-0.9c2.5-4.2,1.5-8-5.5-12.1l-19.9-11.7
						l4.8-8.1l19.1,11.2c12,7,14.2,15.2,8.5,24.7C425,360.6,416.8,362.7,404.8,355.7z"/>
					<path class="st1" d="M405.9,307.8l4-14.1c2.4-8.6,6.6-14.6,14.2-12.5c3.6,1,6.8,4.2,7,7.9l0.2,0.1c2.2-3.9,6.2-6.3,11.5-4.8
						c8.1,2.3,9.7,10.4,7.1,19.4l-4.3,15.3L405.9,307.8z M425.6,298.6c1.3-4.5,0-7.1-2.9-7.9c-3.1-0.9-4.9,0.9-6.1,5.3l-1.3,4.4
						l9,2.5L425.6,298.6z M442.8,302.5c1.4-5.1,0.5-8.2-3.2-9.2c-3.5-1-5.6,1.2-7.1,6.3l-1.5,5.2l10.3,2.9L442.8,302.5z"/>
				</g>
			</g>
		</g>
		<g>
			<g>
				<path class="st1" d="M46.4,214l2-9.5l32.8,6.9l3.5-16.6l7.7,1.6l-5.5,26.1L46.4,214z"/>
				<path class="st1" d="M77.2,175.7c-11.9-6.3-15-17-9.6-27.2c5.4-10.2,16-13.6,27.9-7.3c11.9,6.3,15.3,17.1,9.9,27.4
					C100,178.9,89.2,182.1,77.2,175.7z M90.9,150c-7.3-3.9-13.4-2.9-16.1,2.3s-0.2,10.7,7.2,14.6s13.7,3.1,16.4-2.1
					C101.1,159.7,98.2,153.9,90.9,150z"/>
				<path class="st1" d="M117.2,138.6l-0.7-8.5c4-0.4,8-2,10.5-4.6c2.8-2.9,3.1-5.4,1.4-7.1c-1.9-1.8-4.2-0.7-7.8,1l-5.5,2.4
					c-4.3,2-9.8,2.5-14.1-1.6c-4.9-4.8-4.4-13.2,1.8-19.6c3.4-3.5,8.4-5.9,13.5-6.1l0.8,7.6c-3.5,0.6-6.2,1.7-8.5,4.1
					c-2.3,2.4-2.9,4.9-1.2,6.5c1.8,1.8,4.4,0.4,8.1-1.3l5.3-2.4c5.1-2.3,9.8-2.3,14,1.7c4.9,4.8,5,13.2-2.1,20.5
					C128.7,135.4,123.1,138.2,117.2,138.6z"/>
				<path class="st1" d="M149.5,107.9l1.5-8.4c3.9,0.6,8.2,0.1,11.3-1.7c3.5-2.1,4.4-4.4,3.1-6.5c-1.3-2.2-3.9-1.7-7.8-1.1l-6,0.9
					c-4.7,0.8-10.1-0.1-13.2-5.2c-3.5-5.9-0.8-13.8,6.9-18.4c4.2-2.5,9.7-3.6,14.6-2.4l-1.2,7.6c-3.5-0.3-6.4,0-9.3,1.8
					c-2.9,1.7-4,3.9-2.8,6c1.3,2.2,4.2,1.5,8.1,0.8l5.8-1c5.6-0.9,10.1,0.3,13.1,5.3c3.5,5.9,1.4,14-7.4,19.3
					C161.4,107.7,155.3,109,149.5,107.9z"/>
				<path class="st1" d="M181.4,51.4l9.2-3l12.8,39.3l-9.2,3L181.4,51.4z"/>
				<path class="st1" d="M217.2,42l26.8-2.5l0.7,7.8l-17.1,1.6l0.8,8.3l14.6-1.4l0.7,7.8L229.1,65l0.9,9.5l17.8-1.7l0.7,7.8
					l-27.5,2.6L217.2,42z"/>
				<path class="st1" d="M270.9,40l10.4,2.1l3.2,19.4c0.4,2.6,0.6,5.3,0.9,8l0.3,0.1c1.4-2.3,2.6-4.8,3.9-7l10.3-16.7l10.4,2.1
					L302,88.5l-8.7-1.8l3-14.9c0.8-3.9,2.8-9.7,4-13.5l-0.3,0l-5.4,8.9l-9.1,14.3l-5.3-1.1l-2.8-16.7L276,53.5l-0.3,0
					c-0.4,4-0.8,10.1-1.6,14l-3,14.9l-8.5-1.7L270.9,40z"/>
				<path class="st1" d="M324.2,75c6.7-11.7,17.4-14.5,27.5-8.7c10.1,5.8,13.1,16.5,6.4,28.1c-6.7,11.7-17.6,14.8-27.7,9
					C320.3,97.7,317.5,86.7,324.2,75z M349.4,89.5c4.1-7.2,3.3-13.3-1.8-16.2s-10.7-0.5-14.8,6.7s-3.5,13.6,1.6,16.5
					C339.5,99.4,345.3,96.7,349.4,89.5z"/>
				<path class="st1" d="M371.8,107.9L388,92.8l6.6,7.1l-16.9,15.8c-5.9,5.5-6.2,9.4-2.9,12.9c3.3,3.5,7.2,3.7,13.1-1.8l16.9-15.8
					l6.4,6.8L395,132.9c-10.1,9.4-18.6,9.3-26.1,1.1C361.3,125.9,361.6,117.4,371.8,107.9z"/>
				<path class="st1" d="M423.4,151.7l-5.4-10.6l7-3.5l15.1,29.8l-7,3.5l-5.4-10.6l-29.9,15.1l-4.4-8.7L423.4,151.7z"/>
				<path class="st1" d="M447.9,190.3l1.8,9.6l-15.6,2.9l2.7,14.6l15.6-2.9l1.8,9.6l-40.6,7.6l-1.8-9.6l17-3.2l-2.7-14.6l-17,3.2
					l-1.8-9.6L447.9,190.3z"/>
			</g>
		</g>
	</g>
</g>
</svg>
